<svg xmlns="http://www.w3.org/2000/svg" xmlns:xlink="http://www.w3.org/1999/xlink" version="1.0" width="600" height="600" enable-background="new 0 0 600 600" xml:space="preserve" style=""><rect id="backgroundrect" width="100%" height="100%" x="0" y="0" fill="none" stroke="none"/>

<g class="currentLayer" style=""><title>Layer 1</title><g id="svg_1" class="" transform="">
	<defs transform="translate(499.393 480) scale(1.23752 1.23752) translate(-499.393 -480) translate(0.792259 27.8725) scale(1.17011 1.17011) translate(-0.792259 -27.8725) translate(403.429 383.821) scale(0.990269 0.990269) translate(-403.429 -383.821) translate(4.64125 27.592) scale(0.912968 0.912968) translate(-4.64125 -27.592) translate(5.08369 30.2223) scale(1.12454 1.12454) translate(-5.08369 -30.2223) translate(407.272 386.875) scale(1.00978 1.00978) translate(-407.272 -386.875)">
		<rect id="SVGID_1_" width="600" height="600"/>
	</defs>
	<clipPath id="SVGID_2_" transform="translate(499.393 480) scale(1.23752 1.23752) translate(-499.393 -480) translate(0.792259 27.8725) scale(1.17011 1.17011) translate(-0.792259 -27.8725) translate(403.429 383.821) scale(0.990269 0.990269) translate(-403.429 -383.821) translate(4.64125 27.592) scale(0.912968 0.912968) translate(-4.64125 -27.592) translate(5.08369 30.2223) scale(1.12454 1.12454) translate(-5.08369 -30.2223) translate(407.272 386.875) scale(1.00978 1.00978) translate(-407.272 -386.875)">
		<use xlink:href="#SVGID_1_" overflow="visible" id="svg_2"/>
	</clipPath>
	<path clip-path="url(#SVGID_2_)" fill-rule="evenodd" clip-rule="evenodd" fill="#1A1A1A" d="M 140.006 505.336 V 505.331 h -107.032 l -0.00297316 0.00148658 v 0.00297316 h -0.00445973 l -28.4531 16.7894 c -2.26554 1.33643 -3.65549 3.77145 -3.65549 6.40269 V 569.551 H 172.124 v -41.0251 c 0 -2.63273 -1.38995 -5.06477 -3.65549 -6.40269 l -28.4531 -16.7894 H 140.006 Z M 482.606 130.781 l -0.0832483 235.398 c 8.94325 -6.71635 20.0584 -10.6944 32.1026 -10.6944 c 12.0041 0 23.0836 3.95132 32.0119 10.6246 l 0.0817618 -235.386 c 13.009 -9.76235 21.4275 -25.3105 21.4275 -42.8268 c 0 -29.5546 -23.9621 -53.5123 -53.5212 -53.5123 s -53.5212 23.9577 -53.5212 53.5123 C 461.104 105.445 469.554 121.021 482.606 130.781 M 32.9712 494.626 h 107.035 v -36.6753 c 0 -2.63273 -1.39441 -5.0722 -3.66441 -6.40715 l -17.7408 -10.4343 l 0.00891946 -0.00594631 h -0.00891946 V 222.199 l -43.4006 -71.1 c -7.46113 -1.329 -14.4852 -3.9201 -20.818 -7.58452 v 297.59 h -0.00891946 l 0.00743288 0.00594631 l -17.7438 10.4373 c -2.27149 1.33346 -3.6659 3.77293 -3.6659 6.40715 V 494.626 Z M 481.983 532.421 v 25.801 c 0 3.65995 -2.66246 6.77582 -6.27633 7.34369 l -18.2031 2.86612 c -3.95875 0.622876 -7.69898 -2.00391 -8.45565 -5.93888 l -19.3062 -100.377 c -0.465299 -2.42312 0.298802 -4.9176 2.04404 -6.65987 l 31.4634 -31.4664 c 4.74961 16.3152 17.0496 29.4134 32.8727 35.2453 l -14.1403 14.1388 C 481.981 473.374 481.983 506.162 481.983 532.421 M 471.818 135.734 c -5.46168 -4.88787 -10.0998 -10.6736 -13.6334 -17.161 l -152.627 249.127 l 6.21538 10.2024 c 18.7606 3.30912 34.7175 14.7335 44.08 30.5492 L 471.818 219.165 V 135.734 Z M 566.272 424.372 l -9.27178 -9.25692 c 0.285423 -2.00093 0.441513 -4.04052 0.441513 -6.11726 c 0 -24.5508 -20.6649 -44.2732 -45.5532 -42.7257 c -21.319 1.32751 -38.6718 18.6744 -39.9949 39.9934 c -1.54455 24.8823 18.1808 45.5428 42.7317 45.5428 c 3.38642 0 6.67622 -0.404349 9.83519 -1.14615 l 22.2719 22.2377 l -0.00148658 85.2418 c 0 3.65847 2.66246 6.77284 6.27782 7.34072 l 18.7353 2.94937 c 3.95875 0.624363 7.70196 -2.00539 8.45565 -5.94185 l 19.2467 -100.38 c 0.463812 -2.42312 -0.301775 -4.9176 -2.0485 -6.65838 L 566.272 424.372 Z M 307.13 388.012 L 135.973 108.303 c 2.59705 -6.28971 4.03903 -13.1785 4.03903 -20.4077 c 0 -29.5546 -23.9621 -53.5123 -53.5212 -53.5123 c -29.5591 0 -53.5212 23.9577 -53.5212 53.5123 c 0 27.6488 20.9726 50.3965 47.8782 53.2165 l 170.58 278.764 c -2.82004 6.51269 -4.38986 13.6914 -4.38986 21.2402 c 0 29.5576 23.9606 53.5197 53.5197 53.5197 s 53.5212 -23.9621 53.5212 -53.5197 C 354.079 413.783 333.587 391.254 307.13 388.012" id="svg_3" transform=""/>
</g></g></svg>